<svg clip-rule="evenodd" fill-rule="evenodd" stroke-linejoin="round" stroke-miterlimit="2" viewBox="0 0 32 32" xmlns="http://www.w3.org/2000/svg" xmlns:xlink="http://www.w3.org/1999/xlink"><linearGradient id="_Linear1" gradientTransform="matrix(25.846 26.923 -26.923 25.846 51.077 195)" gradientUnits="userSpaceOnUse" x1="0" x2="1" y1="0" y2="0"><stop offset="0" stop-color="#ffbf61"/><stop offset="1" stop-color="#ff4f68"/></linearGradient><g transform="translate(-48 -192)"><g transform="matrix(.929 0 0 .929 4.571 13.929)"><path d="m64 193.923c4.458 0 8.077 3.619 8.077 8.077s-3.619 8.077-8.077 8.077-8.077-3.619-8.077-8.077 3.619-8.077 8.077-8.077zm0 2.154c-3.269 0-5.923 2.654-5.923 5.923s2.654 5.923 5.923 5.923 5.923-2.654 5.923-5.923-2.654-5.923-5.923-5.923zm14.009 21.147c.67.607 1.054 1.467 1.059 2.37.009.37.009.811.009 1.252 0 1.784-1.447 3.231-3.231 3.231h-23.692c-1.784 0-3.231-1.447-3.231-3.231v-1.232c0-.914.387-1.785 1.065-2.398.003-.004.007-.007.011-.01 7.481-6.578 20.527-6.595 28 .009.004.003.007.006.01.009zm-1.442 1.6c-6.712-5.926-18.42-5.907-25.146-.001-.219.204-.344.491-.344.791v1.232c0 .595.482 1.077 1.077 1.077h23.692c.595 0 1.077-.482 1.077-1.077 0-.426 0-.852-.009-1.208 0-.009 0-.018 0-.026 0-.3-.126-.586-.347-.788z" fill="url(#_Linear1)"/></g></g></svg>