<svg id="Layer_1" enable-background="new 0 0 64 64" viewBox="0 0 64 64" xmlns="http://www.w3.org/2000/svg" xmlns:xlink="http://www.w3.org/1999/xlink"><linearGradient id="SVGID_1_" gradientUnits="userSpaceOnUse" x1="6.839" x2="57.161" y1="32" y2="32"><stop offset="0" stop-color="#fff33b"/><stop offset=".0401054" stop-color="#fee72e"/><stop offset=".1170904" stop-color="#fed51b"/><stop offset=".1964058" stop-color="#fdca10"/><stop offset=".280899" stop-color="#fdc70c"/><stop offset=".668539" stop-color="#f3903f"/><stop offset=".88764" stop-color="#ed683c"/><stop offset="1" stop-color="#e93e3a"/></linearGradient><path d="m50.8613281 20h-5.8613281v-5c0-7.1679688-5.8320313-13-13-13s-13 5.8320313-13 13v5h-5.8613281l-6.2998047 42h50.3222656zm-29.8613281-5c0-6.0654297 4.9345703-11 11-11s11 4.9345703 11 11v5h-22zm-6.1386719 7h4.1386719 2 22 2 4.1386719l5.7001953 38h-45.6777344zm20.5302735 20-1.3566895-4.1755371c6.2023926-.9818115 10.9650879-6.3504028 10.9650879-12.8244629h-2c0 5.586853-4.1898804 10.2038574-9.5905762 10.899292l-1.4094238-4.3377686-1.4094238 4.3377686c-5.4006958-.6954346-9.5905762-5.312439-9.5905762-10.899292h-2c0 6.4740601 4.7626953 11.8426514 10.9650879 12.8244629l-1.3566895 4.1755371h-11.1601562l9.0478516 6.1210938-3.4238281 10.0888672 8.9199219-6.4208984 8.9306641 6.6074219-3.4228517-10.2939454 9.0654297-6.1025391zm1.6386718 11.0292969-5.0224609-3.7167969-5.0332031 3.6240234 1.90625-5.6162109-4.9072266-3.3203125h6.0878906l1.9384766-5.9658203 1.9384766 5.9658203h6.0742188l-4.8896484 3.2919922z" fill="url(#SVGID_1_)"/></svg>
